HIERARCHY
ROOT Hips
{
	OFFSET	0.00	0.00	0.00
	CHANNELS 6 Xposition Yposition Zposition Zrotation Xrotation Yrotation
	JOINT LeftUpLeg
	{
		OFFSET	 0.126116	-0.014019	-0.065224
		CHANNELS 3 Zrotation Xrotation Yrotation
		JOINT LeftLeg
		{
			OFFSET	 0.000000	 0.000000	 0.569914
			CHANNELS 3 Zrotation Xrotation Yrotation
			JOINT LeftFoot
			{
				OFFSET	 0.000000	 0.000000	 0.544423
				CHANNELS 3 Zrotation Xrotation Yrotation
				JOINT LeftToeBase
				{
					OFFSET	 0.000000	 0.000000	 0.207117
					CHANNELS 3 Zrotation Xrotation Yrotation
					End Site
					{
						OFFSET	 0.000000	 0.000000	 0.207117
					}
				}
			}
		}
	}
	JOINT RightUpLeg
	{
		OFFSET	-0.124023	-0.008373	-0.065224
		CHANNELS 3 Zrotation Xrotation Yrotation
		JOINT RightLeg
		{
			OFFSET	 0.000000	 0.000000	 0.570047
			CHANNELS 3 Zrotation Xrotation Yrotation
			JOINT RightFoot
			{
				OFFSET	 0.000000	 0.000000	 0.544354
				CHANNELS 3 Zrotation Xrotation Yrotation
				JOINT RightToeBase
				{
					OFFSET	 0.000000	 0.000000	 0.207540
					CHANNELS 3 Zrotation Xrotation Yrotation
					End Site
					{
						OFFSET	 0.000000	 0.000000	 0.207540
					}
				}
			}
		}
	}
	JOINT Spine
	{
		OFFSET	 0.000184	-0.007763	 0.117403
		CHANNELS 3 Zrotation Xrotation Yrotation
		JOINT Spine1
		{
			OFFSET	 0.000000	 0.000000	 0.137269
			CHANNELS 3 Zrotation Xrotation Yrotation
			JOINT Spine2
			{
				OFFSET	 0.000000	 0.000000	 0.156879
				CHANNELS 3 Zrotation Xrotation Yrotation
				JOINT LeftShoulder
				{
					OFFSET	 0.080501	-0.002496	 0.160144
					CHANNELS 3 Zrotation Xrotation Yrotation
					JOINT LeftArm
					{
						OFFSET	 0.000000	 0.000000	 0.164363
						CHANNELS 3 Zrotation Xrotation Yrotation
						JOINT LeftForeArm
						{
							OFFSET	 0.000000	 0.000000	 0.364576
							CHANNELS 3 Zrotation Xrotation Yrotation
							JOINT LeftHand
							{
								OFFSET	 0.000000	 0.000000	 0.360812
								CHANNELS 3 Zrotation Xrotation Yrotation
								JOINT LeftHandIndex1
								{
									OFFSET	 0.000000	 0.000000	 0.086006
									CHANNELS 3 Zrotation Xrotation Yrotation
									JOINT LeftHandIndex2
									{
										OFFSET	 0.000000	 0.000000	 0.047236
										CHANNELS 3 Zrotation Xrotation Yrotation
										JOINT LeftHandIndex3
										{
											OFFSET	-0.004284	-0.000551	 0.038166
											CHANNELS 3 Zrotation Xrotation Yrotation
											End Site
											{
												OFFSET	-0.004284	-0.000551	 0.038166
											}
										}
									}
								}
							}
						}
					}
				}
				JOINT Neck
				{
					OFFSET	 0.000000	 0.000000	 0.176489
					CHANNELS 3 Zrotation Xrotation Yrotation
					JOINT Head
					{
						OFFSET	 0.000000	-0.001747	 0.077940
						CHANNELS 3 Zrotation Xrotation Yrotation
						End Site
						{
							OFFSET	 0.000000	-0.001747	 0.077940
						}
					}
				}
				JOINT RightShoulder
				{
					OFFSET	-0.080363	 0.000306	 0.159706
					CHANNELS 3 Zrotation Xrotation Yrotation
					JOINT RightArm
					{
						OFFSET	 0.000000	 0.000000	 0.164196
						CHANNELS 3 Zrotation Xrotation Yrotation
						JOINT RightForeArm
						{
							OFFSET	 0.000000	 0.000000	 0.365611
							CHANNELS 3 Zrotation Xrotation Yrotation
							JOINT RightHand
							{
								OFFSET	 0.000000	 0.000000	 0.360648
								CHANNELS 3 Zrotation Xrotation Yrotation
								JOINT RightHandIndex1
								{
									OFFSET	 0.000000	 0.000000	 0.069977
									CHANNELS 3 Zrotation Xrotation Yrotation
									JOINT RightHandIndex2
									{
										OFFSET	 0.000000	 0.000000	 0.052305
										CHANNELS 3 Zrotation Xrotation Yrotation
										JOINT RightHandIndex3
										{
											OFFSET	 0.009002	-0.000782	 0.042196
											CHANNELS 3 Zrotation Xrotation Yrotation
											End Site
											{
												OFFSET	 0.009002	-0.000782	 0.042196
											}
										}
									}
								}
							}
						}
					}
				}
			}
		}
	}
}
MOTION
Frames:    6
Frame Time: 0.03333334
-0.000515	 0.025044	 1.269165	 0.003900	 0.005994	-0.115386	-13.332590	-2.501654	 179.973100	 1.447728	-13.845390	-0.812407	-4.728678	 72.333730	-1.632288	-2.385833	 28.452760	 0.000004	 13.223350	-3.367604	-179.687000	-1.420089	-14.834010	 0.856952	 4.887512	 72.440270	 1.296646	 2.384658	 28.388730	 0.000004	 2.678469	 2.755752	-0.039049	 1.379949	 3.569242	 0.559941	-4.149157	-4.474514	-0.908682	-91.776140	 78.527470	 180.000000	 64.770010	 44.594510	-47.219840	-8.015773	 2.650627	-6.632710	-30.346220	-20.482850	-4.536641	-2.635965	 4.993658	 6.788941	-5.165319	 0.784187	 3.516649	-5.225038	 0.466231	 0.424329	-0.000002	-3.783157	-0.089647	-4.027664	 4.947990	 0.174077	 89.782130	 78.203870	 180.000000	 9.684104	 13.234290	 84.565220	-33.627970	-4.809357	 14.503960	 1.193228	-20.889820	-6.519256	 6.112037	 4.509576	-0.364401	 4.968462	 1.518543	-9.347576	 5.168945	 0.703820	 2.021906
-0.000474	 0.026279	 1.269479	 0.004228	 0.007637	-0.090096	-13.334160	-2.414276	 179.937400	 1.450670	-13.642600	-0.800037	-4.688651	 72.198700	-1.673802	-2.385833	 28.452760	 0.000004	 13.224210	-3.329598	-179.685800	-1.423504	-14.611550	 0.843523	 4.875100	 72.247150	 1.306942	 2.384658	 28.388730	 0.000004	 2.110069	 2.749857	-0.012675	 1.091789	 3.572160	 0.449919	-3.280339	-4.508732	-0.722654	-91.776200	 78.527450	-180.000000	 64.682520	 44.547240	-46.933330	-8.001070	 2.774521	-6.944750	-30.340710	-20.471520	-4.535567	-2.635965	 4.993658	 6.788941	-5.165319	 0.784187	 3.516649	-5.225038	 0.466231	 0.424329	-0.000002	-3.783157	-0.089647	-3.181551	 5.013604	 0.139309	 89.782140	 78.203900	 180.000000	 9.690216	 13.358100	 84.539100	-33.720250	-4.857092	 14.564780	 1.178229	-20.948570	-6.566334	 6.112037	 4.509576	-0.364401	 4.968462	 1.518543	-9.347576	 5.168945	 0.703820	 2.021906
-0.000421	 0.027520	 1.269791	 0.004100	 0.008657	-0.062437	-13.335210	-2.327668	 179.900400	 1.453505	-13.443600	-0.787925	-4.648263	 72.065440	-1.715826	-2.385833	 28.452760	 0.000004	 13.225340	-3.286119	-179.686400	-1.427037	-14.377280	 0.829405	 4.860816	 72.047620	 1.319215	 2.384658	 28.388730	 0.000004	 1.473850	 2.746545	-0.014496	 0.767118	 3.572825	 0.385197	-2.308976	-4.536802	-0.540605	-91.776210	 78.527430	-180.000000	 64.607480	 44.481750	-46.637130	-7.983512	 2.914174	-7.296708	-30.339430	-20.449820	-4.535003	-2.635965	 4.993658	 6.788941	-5.165319	 0.784187	 3.516649	-5.225038	 0.466231	 0.424329	-0.000002	-3.783157	-0.089647	-2.234760	 5.068554	 0.098909	 89.782150	 78.203870	 180.000000	 9.711892	 13.513690	 84.514920	-33.824550	-4.910869	 14.632440	 1.175891	-21.021150	-6.621948	 6.112037	 4.509576	-0.364401	 4.968462	 1.518543	-9.347576	 5.168945	 0.703820	 2.021906
-0.000350	 0.028756	 1.270102	 0.002015	 0.010317	-0.025614	-13.334500	-2.246499	 179.855300	 1.456097	-13.259240	-0.776720	-4.610372	 71.939830	-1.755303	-2.385833	 28.452760	 0.000004	 13.227930	-3.238066	-179.694000	-1.430719	-14.128560	 0.814455	 4.846846	 71.840930	 1.331010	 2.384658	 28.388730	 0.000004	 0.793997	 2.741470	 0.028905	 0.424064	 3.574245	 0.210912	-1.264643	-4.559271	-0.295826	-91.776260	 78.527450	-180.000000	 64.562480	 44.409350	-46.390430	-7.966680	 3.042215	-7.619796	-30.342160	-20.412620	-4.534858	-2.635965	 4.993658	 6.788941	-5.165319	 0.784187	 3.516649	-5.225038	 0.466231	 0.424329	-0.000002	-3.783157	-0.089647	-1.221637	 5.105985	 0.054458	 89.782050	 78.203900	-180.000000	 9.734488	 13.697790	 84.485630	-33.936660	-4.970027	 14.707490	 1.196138	-21.047810	-6.670352	 6.112037	 4.509576	-0.364401	 4.968462	 1.518543	-9.347576	 5.168945	 0.703820	 2.021906
-0.000268	 0.030017	 1.270404	 0.000031	 0.011565	 0.011243	-13.333760	-2.168603	 179.810800	 1.458549	-13.081690	-0.765947	-4.573695	 71.816930	-1.793565	-2.385833	 28.452760	 0.000004	 13.230450	-3.190600	-179.701500	-1.434340	-13.878620	 0.799462	 4.833378	 71.631650	 1.342298	 2.384658	 28.388730	 0.000004	 0.069055	 2.738192	 0.076157	 0.057848	 3.574766	 0.028117	-0.151063	-4.570172	-0.035670	-91.776200	 78.527450	-180.000000	 64.542450	 44.329850	-46.167680	-7.947831	 3.180214	-7.968365	-30.348900	-20.351620	-4.534990	-2.635965	 4.993658	 6.788941	-5.165319	 0.784187	 3.516649	-5.225038	 0.466231	 0.424329	-0.000002	-3.783157	-0.089647	-0.141956	 5.121617	 0.006335	 89.782190	 78.203900	 179.999900	 9.721694	 13.833970	 84.440050	-34.052670	-5.033066	 14.788850	 0.945633	-20.921500	-6.697772	 6.112037	 4.509576	-0.364401	 4.968462	 1.518543	-9.347576	 5.168945	 0.703820	 2.021906
-0.000170	 0.031181	 1.270621	-0.001606	 0.010531	 0.039950	-13.332970	-2.116826	 179.778000	 1.460190	-12.961090	-0.758636	-4.547112	 71.725460	-1.821355	-2.385833	 28.452760	 0.000004	 13.232790	-3.162868	-179.706100	-1.437074	-13.686900	 0.787982	 4.827411	 71.457760	 1.345994	 2.384658	 28.388730	 0.000004	-0.610514	 2.736991	 0.123298	-0.285849	 3.577662	-0.136203	 0.892269	-4.569634	 0.205010	-91.776120	 78.527470	 180.000000	 64.548580	 44.256340	-45.977090	-7.926056	 3.332411	-8.353128	-30.358640	-20.266760	-4.535315	-2.635965	 4.993658	 6.788941	-5.165319	 0.784187	 3.516649	-5.225038	 0.466231	 0.424329	-0.000002	-3.783157	-0.089647	 0.869736	 5.113580	-0.038852	 89.782100	 78.203830	 180.000000	 9.660954	 13.909460	 84.423680	-34.090680	-5.038872	 14.773920	 0.390719	-20.667790	-6.692198	 6.112037	 4.509576	-0.364401	 4.968462	 1.518543	-9.347576	 5.168945	 0.703820	 2.021906
